<?xml version="1.0" encoding="UTF-8" standalone="no"?>
<!-- Generator: Adobe Illustrator 16.0.0, SVG Export Plug-In . SVG Version: 6.00 Build 0)  -->

<svg
   xmlns:dc="http://purl.org/dc/elements/1.1/"
   xmlns:cc="http://creativecommons.org/ns#"
   xmlns:rdf="http://www.w3.org/1999/02/22-rdf-syntax-ns#"
   xmlns:svg="http://www.w3.org/2000/svg"
   xmlns="http://www.w3.org/2000/svg"
   xmlns:xlink="http://www.w3.org/1999/xlink"
   xmlns:sodipodi="http://sodipodi.sourceforge.net/DTD/sodipodi-0.dtd"
   xmlns:inkscape="http://www.inkscape.org/namespaces/inkscape"
   version="1.1"
   id="Layer_1"
   x="0px"
   y="0px"
   width="390.00122"
   height="390"
   viewBox="0 0 390.0012 389.99999"
   enable-background="new 0 0 595.28 841.89"
   xml:space="preserve"
   inkscape:version="0.48.4 r9939"
   sodipodi:docname="freesyndicon.svg"><metadata
   id="metadata3022"><rdf:RDF><cc:Work
       rdf:about=""><dc:format>image/svg+xml</dc:format><dc:type
         rdf:resource="http://purl.org/dc/dcmitype/StillImage" /><dc:title></dc:title></cc:Work></rdf:RDF></metadata><defs
   id="defs3020"><linearGradient
   id="linearGradient3916"><stop
     style="stop-color:#000000;stop-opacity:1;"
     offset="0"
     id="stop3918" /><stop
     style="stop-color:#2e2e2e;stop-opacity:1;"
     offset="1"
     id="stop3920" /></linearGradient><filter
   id="filter3042"
   inkscape:label="Glow"
   inkscape:menu="Shadows and Glows"
   inkscape:menu-tooltip="Glow of object's own color at the edges"
   color-interpolation-filters="sRGB"><feGaussianBlur
     id="feGaussianBlur3044"
     stdDeviation="5"
     result="result91" /><feComposite
     id="feComposite3046"
     in2="result91"
     in="SourceGraphic"
     operator="over" /></filter><filter
   id="filter3066"
   inkscape:label="Glow"
   inkscape:menu="Shadows and Glows"
   inkscape:menu-tooltip="Glow of object's own color at the edges"
   color-interpolation-filters="sRGB"><feGaussianBlur
     id="feGaussianBlur3068"
     stdDeviation="5"
     result="result91" /><feComposite
     id="feComposite3070"
     in2="result91"
     in="SourceGraphic"
     operator="over" /></filter><filter
   id="filter3122"
   inkscape:label="Drop Shadow"
   color-interpolation-filters="sRGB"><feFlood
     id="feFlood3124"
     flood-opacity="0.5"
     flood-color="rgb(0,0,0)"
     result="flood" /><feComposite
     id="feComposite3126"
     in2="SourceGraphic"
     in="flood"
     operator="in"
     result="composite1" /><feGaussianBlur
     id="feGaussianBlur3128"
     stdDeviation="2"
     result="blur" /><feOffset
     id="feOffset3130"
     dx="4"
     dy="4"
     result="offset" /><feComposite
     id="feComposite3132"
     in2="offset"
     in="SourceGraphic"
     operator="over"
     result="composite2" /></filter>
	
	
<radialGradient
   inkscape:collect="always"
   xlink:href="#linearGradient3916"
   id="radialGradient3924"
   cx="297.6405"
   cy="420.94501"
   fx="297.6405"
   fy="420.94501"
   r="162.5005"
   gradientTransform="matrix(1,0,0,0.99999692,0,0.001296)"
   gradientUnits="userSpaceOnUse" /><radialGradient
   inkscape:collect="always"
   xlink:href="#linearGradient3916"
   id="radialGradient3960"
   gradientUnits="userSpaceOnUse"
   gradientTransform="matrix(1,0,0,0.99999692,0,0.001296)"
   cx="297.6405"
   cy="420.94501"
   fx="297.6405"
   fy="420.94501"
   r="162.5005" /><radialGradient
   inkscape:collect="always"
   xlink:href="#linearGradient3916"
   id="radialGradient3962"
   gradientUnits="userSpaceOnUse"
   gradientTransform="matrix(1,0,0,0.99999692,0,0.001296)"
   cx="297.6405"
   cy="420.94501"
   fx="297.6405"
   fy="420.94501"
   r="162.5005" /><radialGradient
   inkscape:collect="always"
   xlink:href="#linearGradient3916"
   id="radialGradient3964"
   gradientUnits="userSpaceOnUse"
   gradientTransform="matrix(1,0,0,0.99999692,0,0.001296)"
   cx="297.6405"
   cy="420.94501"
   fx="297.6405"
   fy="420.94501"
   r="162.5005" /><radialGradient
   inkscape:collect="always"
   xlink:href="#linearGradient3916"
   id="radialGradient3966"
   gradientUnits="userSpaceOnUse"
   gradientTransform="matrix(1,0,0,0.99999692,0,0.001296)"
   cx="297.6405"
   cy="420.94501"
   fx="297.6405"
   fy="420.94501"
   r="162.5005" /><radialGradient
   inkscape:collect="always"
   xlink:href="#linearGradient3916"
   id="radialGradient3968"
   gradientUnits="userSpaceOnUse"
   gradientTransform="matrix(1,0,0,0.99999692,0,0.001296)"
   cx="297.6405"
   cy="420.94501"
   fx="297.6405"
   fy="420.94501"
   r="162.5005" /><radialGradient
   inkscape:collect="always"
   xlink:href="#linearGradient3916"
   id="radialGradient3970"
   gradientUnits="userSpaceOnUse"
   gradientTransform="matrix(1,0,0,0.99999692,0,0.001296)"
   cx="297.6405"
   cy="420.94501"
   fx="297.6405"
   fy="420.94501"
   r="162.5005" /><radialGradient
   inkscape:collect="always"
   xlink:href="#linearGradient3916"
   id="radialGradient3972"
   gradientUnits="userSpaceOnUse"
   gradientTransform="matrix(1,0,0,0.99999692,0,0.001296)"
   cx="297.6405"
   cy="420.94501"
   fx="297.6405"
   fy="420.94501"
   r="162.5005" /></defs><sodipodi:namedview
   pagecolor="#ffffff"
   bordercolor="#666666"
   borderopacity="1"
   objecttolerance="10"
   gridtolerance="10"
   guidetolerance="10"
   inkscape:pageopacity="0"
   inkscape:pageshadow="2"
   inkscape:window-width="1920"
   inkscape:window-height="1018"
   id="namedview3018"
   showgrid="false"
   inkscape:zoom="1"
   inkscape:cx="114.98267"
   inkscape:cy="204.62687"
   inkscape:window-x="-8"
   inkscape:window-y="-8"
   inkscape:window-maximized="1"
   inkscape:current-layer="Layer_1"
   fit-margin-top="0"
   fit-margin-left="0"
   fit-margin-right="0"
   fit-margin-bottom="0" />
<g
   id="g2986"
   style="fill:url(#radialGradient3924);fill-opacity:1"
   transform="translate(-102.63991,-225.945)">
	<path
   d="M 266,369 V 258.445 H 147.14 c -6.627,0 -12,5.373 -12,12 V 369 H 246.307 266 z"
   id="path2988"
   inkscape:connector-curvature="0"
   style="fill:url(#radialGradient3960);fill-opacity:1" />
	<polygon
   points="334,539 460.141,539 460.141,403.695 338.727,403.695 338.727,258.445 270,258.445 270,373 246.307,373 246.307,462 334,462 "
   id="polygon2990"
   style="fill:url(#radialGradient3962);fill-opacity:1" />
	<path
   d="M 448.141,258.445 H 342 V 334 h 118.141 v -63.555 c 0,-6.628 -5.373,-12 -12,-12 z"
   id="path2992"
   inkscape:connector-curvature="0"
   style="fill:url(#radialGradient3964);fill-opacity:1" />
	<rect
   x="342"
   y="338.5"
   width="118.141"
   height="61"
   id="rect2994"
   style="fill:url(#radialGradient3966);fill-opacity:1" />
	<rect
   x="135.14"
   y="373"
   width="107.167"
   height="126"
   id="rect2996"
   style="fill:url(#radialGradient3968);fill-opacity:1" />
	<path
   d="M 460.141,571.445 V 543 H 330.5 v -77 h -84.193 v 117.445 h 201.834 c 6.627,0 12,-5.373 12,-12 z"
   id="path2998"
   inkscape:connector-curvature="0"
   style="fill:url(#radialGradient3970);fill-opacity:1" />
	<path
   d="m 135.14,503 v 68.445 c 0,6.627 5.373,12 12,12 h 95.167 V 503 H 135.14 z"
   id="path3000"
   inkscape:connector-curvature="0"
   style="fill:url(#radialGradient3972);fill-opacity:1" />
</g>
<polygon
   points="330.5,243.5 330.5,243.576 330.727,243.5 "
   id="polygon3002"
   style="fill:#ec008c"
   transform="translate(-102.63991,-225.945)" />
<polygon
   points="135.14,503 242.307,503 242.307,583.445 246.307,583.445 246.307,466 330.5,466 330.5,543 460.141,543 460.141,539 334,539 334,462 246.307,462 246.307,373 270,373 270,258.445 266,258.445 266,369 246.307,369 135.14,369 135.14,373 242.307,373 242.307,499 135.14,499 "
   id="polygon3004"
   style="fill:#88aa00;filter:url(#filter3042)"
   transform="translate(-102.63991,-225.945)" />
<polygon
   points="342,338.5 460.141,338.5 460.141,334 342,334 342,258.445 338.727,258.445 338.727,403.695 460.141,403.695 460.141,399.5 342,399.5 "
   id="polygon3006"
   style="fill:#88aa00;filter:url(#filter3066)"
   transform="translate(-102.63991,-225.945)" />

<g
   id="g3906"
   transform="translate(-102.63991,-235.945)"><g
     transform="translate(0,40)"
     id="g3010"
     style="fill:#007500;fill-opacity:1;stroke:#47d900;stroke-opacity:1;filter:url(#filter3122)">
		<polygon
   stroke-miterlimit="10"
   points="217.057,396.195 267.556,396.195 275.556,388.195 275.556,373.695 225.057,373.695 217.057,381.695 "
   id="polygon3012"
   style="fill:#007500;fill-opacity:1;stroke:#47d900;stroke-width:2;stroke-miterlimit:10;stroke-opacity:1" />
		<polygon
   stroke-miterlimit="10"
   points="209.057,346.195 213.057,342.195 279.556,342.195 287.556,334.195 287.556,319.695 194.557,319.695 186.557,327.695 186.557,462.195 193.307,462.195 193.307,385.695 197.307,381.695 202.057,381.695 202.057,396.361 198.057,400.361 198.057,462.195 201.057,462.195 209.057,454.195 "
   id="polygon3014"
   style="fill:#007500;fill-opacity:1;stroke:#47d900;stroke-width:2;stroke-miterlimit:10;stroke-opacity:1" />
	</g><polygon
     transform="translate(0,-20)"
     stroke-miterlimit="10"
     points="307.724,507.695 307.724,510.445 394.932,510.445 396.932,508.445 396.932,486.217 392.932,482.217 392.932,467.195 397.682,467.195 401.682,471.195 401.682,511.195 397.682,515.195 307.724,515.195 307.724,522.195 400.724,522.195 408.724,514.195 408.724,439.695 330.224,439.695 330.224,406.195 334.224,402.195 400.724,402.195 408.724,394.195 408.724,379.695 315.724,379.695 307.724,387.695 307.724,462.195 386.224,462.195 386.224,495.695 382.224,499.695 315.724,499.695 "
     id="polygon3016"
     style="fill:#007500;fill-opacity:1;stroke:#47d900;stroke-width:2;stroke-miterlimit:10;stroke-opacity:1;filter:url(#filter3122)" /></g><path
   style="fill:#88aa00;stroke:none"
   d="m 44.874181,32.222891 c -7.20066,0 -12.98898,5.77314 -12.98898,12.92347 l 0,299.830719 c 0,7.15033 5.78832,12.89226 12.98898,12.89226 l 299.961379,0 c 7.20066,0 12.98898,-5.74193 12.98898,-12.89226 l 0,-299.830719 c 0,-7.15033 -5.78832,-12.92347 -12.98898,-12.92347 l -299.961379,0 z m 9.22,9.98915 281.521379,0 c 6.75891,0 12.21027,5.43142 12.21027,12.14307 l 0,281.413219 c 0,6.71165 -5.45136,12.11185 -12.21027,12.11185 l -281.521379,0 c -6.75891,0 -12.21027,-5.4002 -12.21027,-12.11185 l 0,-281.413219 c 0,-6.71165 5.45136,-12.14307 12.21027,-12.14307 z"
   id="rect3938"
   inkscape:connector-curvature="0" /></svg>