<?xml version="1.0" encoding="UTF-8" standalone="no"?>
<!-- Created with Inkscape (http://www.inkscape.org/) -->

<svg
   xmlns:dc="http://purl.org/dc/elements/1.1/"
   xmlns:cc="http://creativecommons.org/ns#"
   xmlns:rdf="http://www.w3.org/1999/02/22-rdf-syntax-ns#"
   xmlns:svg="http://www.w3.org/2000/svg"
   xmlns="http://www.w3.org/2000/svg"
   xmlns:xlink="http://www.w3.org/1999/xlink"
   xmlns:sodipodi="http://sodipodi.sourceforge.net/DTD/sodipodi-0.dtd"
   xmlns:inkscape="http://www.inkscape.org/namespaces/inkscape"
   width="512"
   height="512"
   id="svg3009"
   version="1.1"
   inkscape:version="0.48.4 r9939"
   sodipodi:docname="FS_icon-512x512.svg">
  <defs
     id="defs3011">
    <linearGradient
       id="linearGradient3973">
      <stop
         style="stop-color:#80ec01;stop-opacity:1;"
         offset="0"
         id="stop3975" />
      <stop
         style="stop-color:#519501;stop-opacity:1;"
         offset="1"
         id="stop3977" />
    </linearGradient>
    <linearGradient
       id="linearGradient4312">
      <stop
         style="stop-color:#052e00;stop-opacity:0.39215687;"
         offset="0"
         id="stop4314" />
      <stop
         id="stop4320"
         offset="0.60000002"
         style="stop-color:#054c00;stop-opacity:0.19607843;" />
      <stop
         style="stop-color:#055b00;stop-opacity:0.48627451;"
         offset="0.80000001"
         id="stop3899" />
      <stop
         style="stop-color:#ffffff;stop-opacity:1;"
         offset="1"
         id="stop4316" />
    </linearGradient>
    <filter
       id="filter4477"
       inkscape:label="Apparition"
       x="0"
       y="0"
       width="1"
       height="1"
       inkscape:menu="Blurs"
       inkscape:menu-tooltip="Edges are partly feathered out"
       color-interpolation-filters="sRGB">
      <feMorphology
         id="feMorphology4479"
         radius="4"
         in="SourceGraphic"
         result="result0" />
      <feGaussianBlur
         id="feGaussianBlur4481"
         in="result0"
         stdDeviation="8"
         result="result91" />
      <feComposite
         id="feComposite4483"
         in2="result91"
         operator="in"
         in="SourceGraphic" />
    </filter>
    <linearGradient
       inkscape:collect="always"
       xlink:href="#linearGradient3973"
       id="linearGradient3981"
       x1="100"
       y1="652.36218"
       x2="612"
       y2="392.36218"
       gradientUnits="userSpaceOnUse"
       gradientTransform="matrix(0,1,-1,0,652.36218,440.36218)" />
  </defs>
  <sodipodi:namedview
     id="base"
     pagecolor="#ffffff"
     bordercolor="#666666"
     borderopacity="1.0"
     inkscape:pageopacity="0.0"
     inkscape:pageshadow="2"
     inkscape:zoom="0.70710678"
     inkscape:cx="338.90761"
     inkscape:cy="129.76311"
     inkscape:document-units="px"
     inkscape:current-layer="svg3009"
     showgrid="false"
     inkscape:window-width="1024"
     inkscape:window-height="713"
     inkscape:window-x="-2"
     inkscape:window-y="-3"
     inkscape:window-maximized="1"
     inkscape:snap-grids="true">
    <inkscape:grid
       type="xygrid"
       id="grid3028"
       empspacing="5"
       visible="true"
       enabled="true"
       snapvisiblegridlinesonly="true" />
  </sodipodi:namedview>
  <metadata
     id="metadata3014">
    <rdf:RDF>
      <cc:Work
         rdf:about="">
        <dc:format>image/svg+xml</dc:format>
        <dc:type
           rdf:resource="http://purl.org/dc/dcmitype/StillImage" />
        <dc:title />
      </cc:Work>
    </rdf:RDF>
  </metadata>
  <g
     inkscape:groupmode="layer"
     id="layer2"
     inkscape:label="Tło"
     style="display:inline"
     transform="translate(0,-540.36218)">
    <path
       style="fill:#051a00;fill-opacity:1;stroke:none;display:inline"
       d="m 29.59662,544.78857 452.83717,0 c 13.8367,0 25.15763,11.32094 25.15763,25.15764 l 0,452.83749 c 0,13.8367 -11.32093,25.1576 -25.15763,25.1576 l -452.83717,0 c -13.8367,0 -25.15763,-11.3209 -25.15763,-25.1576 l 0,-452.83749 c 0,-13.8367 11.32093,-25.15764 25.15763,-25.15764 z"
       id="rect3804"
       inkscape:connector-curvature="0"
       sodipodi:nodetypes="sssssssss" />
  </g>
  <g
     inkscape:label="Layer 1"
     inkscape:groupmode="layer"
     id="layer1"
     style="display:inline"
     transform="translate(0,-540.36218)">
    <path
       style="font-size:medium;font-style:normal;font-variant:normal;font-weight:normal;font-stretch:normal;text-indent:0;text-align:start;text-decoration:none;line-height:normal;letter-spacing:normal;word-spacing:normal;text-transform:none;direction:ltr;block-progression:tb;writing-mode:lr-tb;text-anchor:start;baseline-shift:baseline;color:#000000;fill:#80ec01;fill-opacity:1;stroke:none;stroke-width:7.01800013;marker:none;visibility:visible;display:inline;overflow:visible;enable-background:accumulate;font-family:Sans;-inkscape-font-specification:Sans"
       d="m 259.78884,751.09732 0,4.40259 0,13.20776 -13.20774,0 -4.40259,0 0,4.40258 0,88.05174 0,4.40258 4.40259,0 13.20774,0 0,13.16845 0,4.4419 4.40259,0 118.86976,0 0,8.76586 -136.48009,0 -4.40259,0 0,4.40259 0,35.22069 0,4.4419 4.40259,0 176.10334,0 4.40259,0 0,-4.4419 0,-13.16845 13.20775,0 4.40258,0 0,-4.4419 0,-52.79172 0,-4.4419 -4.40258,0 -30.81808,0 0,-13.16845 0,-4.44189 -4.40259,0 -101.25943,0 0,-43.98656 44.02584,0 0,13.20776 0,4.40258 4.40258,0 52.83101,0 4.40259,0 0,-4.40258 0,-35.2207 0,-4.40258 -4.40259,0 -13.20775,0 0,-13.20776 0,-4.40259 -4.40258,0 -123.27235,0 -4.40259,0 z m 8.84449,8.80517 114.42786,0 0,13.20776 0,4.40259 4.40259,0 13.20774,0 0,26.37621 -44.02584,0 0,-13.16845 0,-4.44189 -4.40258,0 -52.831,0 -4.40258,0 0,4.44189 0,52.83104 0,4.40258 4.40258,0 101.25942,0 0,13.20777 0,4.40258 4.40259,0 30.77878,0 0,43.98656 -13.16845,0 -4.44189,0 0,4.40258 0,13.20777 -167.21956,0 0,-26.37622 136.44079,0 4.40258,0 0,-4.44189 0,-17.61035 0,-4.40258 -4.40258,0 -118.83045,0 0,-13.16845 0,-4.4419 -4.4419,0 -13.16844,0 0,-79.20725 13.16844,0 4.4419,0 0,-4.40259 0,-13.20776 z"
       id="path3032"
       inkscape:connector-curvature="0" />
    <path
       style="fill:#80ec01;fill-opacity:1;stroke:none;display:inline"
       d="m 386.83483,776.23883 0,5.03153 5.03153,0 0,-5.03153 z"
       id="path3982"
       inkscape:connector-curvature="0" />
    <path
       inkscape:connector-curvature="0"
       id="path3980"
       d="m 398.15576,785.04401 0,5.03153 3.77365,0 0,-5.03153 z"
       style="fill:#80ec01;fill-opacity:1;stroke:none;display:inline" />
    <path
       inkscape:connector-curvature="0"
       id="path3978"
       d="m 371.74026,801.39647 0,5.03153 20.1261,0 0,-5.03153 z"
       style="fill:#80ec01;fill-opacity:1;stroke:none;display:inline" />
    <path
       style="fill:#80ec01;fill-opacity:1;stroke:none;display:inline"
       d="m 362.9351,800.13859 0,5.03153 3.77363,0 0,-5.03153 z"
       id="path3976"
       inkscape:connector-curvature="0" />
    <path
       inkscape:connector-curvature="0"
       id="path3968"
       d="m 345.32476,780.01248 0,7.54729 3.77365,0 0,-7.54729 z"
       style="fill:#80ec01;fill-opacity:1;stroke:none;display:inline" />
    <path
       style="fill:#80ec01;fill-opacity:1;stroke:none;display:inline"
       d="m 335.26171,758.62849 0,3.77365 3.77365,0 0,-3.77365 z"
       id="path3974"
       inkscape:connector-curvature="0" />
    <path
       inkscape:connector-curvature="0"
       id="path3972"
       d="m 323.94078,758.62849 0,7.54729 5.03153,0 0,-7.54729 z"
       style="fill:#80ec01;fill-opacity:1;stroke:none;display:inline" />
    <path
       inkscape:connector-curvature="0"
       id="path3966"
       d="m 300.04104,785.04401 0,5.03153 35.22067,0 0,-5.03153 z"
       style="fill:#80ec01;fill-opacity:1;stroke:none;display:inline" />
    <path
       style="fill:#80ec01;fill-opacity:1;stroke:none;display:inline"
       d="m 307.58833,756.11272 0,7.54729 3.77364,0 0,-7.54729 z"
       id="path3970"
       inkscape:connector-curvature="0" />
    <path
       style="fill:#80ec01;fill-opacity:1;stroke:none;display:inline"
       d="m 274.88342,758.62849 0,5.03152 18.86821,0 0,-5.03152 z"
       id="path3964"
       inkscape:connector-curvature="0" />
    <path
       style="fill:#80ec01;fill-opacity:1;stroke:none;display:inline"
       d="m 292.49375,788.81765 0,10.06306 3.77364,0 0,-10.06306 z"
       id="path6128"
       inkscape:connector-curvature="0" />
    <path
       inkscape:connector-curvature="0"
       id="path6120"
       d="m 249.7258,791.33342 0,5.03152 12.5788,0 0,-5.03152 z"
       style="fill:#80ec01;fill-opacity:1;stroke:none;display:inline" />
    <path
       style="fill:#80ec01;fill-opacity:1;stroke:none;display:inline"
       d="m 288.72011,815.23318 0,6.2894 8.80517,0 0,-6.2894 z"
       id="path6130"
       inkscape:connector-curvature="0" />
    <path
       style="fill:#80ec01;fill-opacity:1;stroke:none;display:inline"
       d="m 248.46792,806.428 0,5.03153 7.54728,0 0,-5.03153 z"
       id="path6122"
       inkscape:connector-curvature="0" />
    <path
       inkscape:connector-curvature="0"
       id="path6124"
       d="m 248.46792,822.78047 0,7.54729 11.32092,0 0,-7.54729 z"
       style="fill:#80ec01;fill-opacity:1;stroke:none;display:inline" />
    <path
       style="fill:#80ec01;fill-opacity:1;stroke:none;display:inline"
       d="m 284.94647,829.06987 0,5.03153 12.57881,0 0,-5.03153 z"
       id="path6132"
       inkscape:connector-curvature="0" />
    <path
       inkscape:connector-curvature="0"
       id="path6126"
       d="m 248.46792,846.68022 0,3.77365 5.03152,0 0,-3.77365 z"
       style="fill:#80ec01;fill-opacity:1;stroke:none;display:inline" />
    <path
       style="fill:#80ec01;fill-opacity:1;stroke:none;display:inline"
       d="m 303.81468,846.68022 0,5.03153 33.96279,0 0,-5.03153 z"
       id="path6134"
       inkscape:connector-curvature="0" />
    <path
       inkscape:connector-curvature="0"
       id="path4149"
       d="m 281.17283,873.09574 0,3.77364 25.15761,0 0,-3.77364 z"
       style="fill:#80ec01;fill-opacity:1;stroke:none;display:inline" />
    <path
       inkscape:connector-curvature="0"
       id="path4153"
       d="m 351.61416,845.42234 0,10.06306 5.03152,0 0,-10.06306 z"
       style="fill:#80ec01;fill-opacity:1;stroke:none;display:inline" />
    <path
       style="fill:#80ec01;fill-opacity:1;stroke:none;display:inline"
       d="m 364.19297,870.57998 0,6.2894 11.32094,0 0,-6.2894 z"
       id="path4151"
       inkscape:connector-curvature="0" />
    <path
       style="fill:#80ec01;fill-opacity:1;stroke:none;display:inline"
       d="m 425.82915,876.86938 0,6.28942 11.32093,0 0,-6.28942 z"
       id="path4155"
       inkscape:connector-curvature="0" />
    <path
       inkscape:connector-curvature="0"
       id="path4169"
       d="m 405.70305,924.66889 0,5.03153 2.51576,0 0,-5.03153 z"
       style="fill:#80ec01;fill-opacity:1;stroke:none;display:inline" />
    <path
       style="fill:#80ec01;fill-opacity:1;stroke:none;display:inline"
       d="m 391.86636,918.37949 0,10.06305 3.77364,0 0,-10.06305 z"
       id="path4167"
       inkscape:connector-curvature="0" />
    <path
       inkscape:connector-curvature="0"
       id="path4157"
       d="m 356.64568,898.25338 0,6.2894 11.32094,0 0,-6.2894 z"
       style="fill:#80ec01;fill-opacity:1;stroke:none;display:inline" />
    <path
       style="fill:#80ec01;fill-opacity:1;stroke:none;display:inline"
       d="m 331.48807,898.25338 0,6.2894 11.32093,0 0,-6.2894 z"
       id="path4159"
       inkscape:connector-curvature="0" />
    <path
       inkscape:connector-curvature="0"
       id="path4171"
       d="m 325.19866,919.63737 0,8.80517 5.03152,0 0,-8.80517 z"
       style="fill:#80ec01;fill-opacity:1;stroke:none;display:inline" />
    <path
       inkscape:connector-curvature="0"
       id="path4161"
       d="m 306.33044,898.25338 0,6.2894 11.32094,0 0,-6.2894 z"
       style="fill:#80ec01;fill-opacity:1;stroke:none;display:inline" />
    <path
       style="fill:#80ec01;fill-opacity:1;stroke:none;display:inline"
       d="m 276.1413,922.15313 0,6.28941 16.35245,0 0,-6.28941 z"
       id="path4163"
       inkscape:connector-curvature="0" />
    <path
       inkscape:connector-curvature="0"
       id="path4165"
       d="m 261.04673,898.25338 0,6.2894 8.80516,0 0,-6.2894 z"
       style="fill:#80ec01;fill-opacity:1;stroke:none;display:inline" />
    <path
       style="fill:none;stroke:#288c00;stroke-width:0.40000001;stroke-linecap:butt;stroke-linejoin:miter;stroke-miterlimit:4;stroke-opacity:1;stroke-dasharray:none;display:inline"
       d="m 400.67152,777.49672 0,7.54729 -2.51576,0 0,5.03153 2.51576,0 0,13.83669 -8.80516,0 0,-2.51576 -20.1261,0 0,2.51576 -5.03153,0 0,-3.77364 -3.77363,0 0,3.77364 -6.28942,0 0,-17.61034 -7.54727,0 0,-6.28941 -3.77365,0 0,6.28941 -10.06305,0 0,-1.25788 -35.22067,0 0,1.25788 -5.03152,0 0,2.51576 -2.51577,0 0,10.06306 2.51577,0 0,16.35247 -6.28941,0 0,6.2894 6.28941,0 0,7.54729 -10.06305,0 0,5.03153 10.06305,0 0,13.8367 8.80516,0 0,3.77365 33.96279,0 0,-3.77365 13.83669,0 0,7.5473 5.03152,0 0,-7.5473 44.02584,0 0,17.61035 35.22068,0 0,11.32093 -10.06305,0 0,6.28942 10.06305,0 0,26.41551 -17.61034,0 0,17.61035 -10.06305,0 0,-2.51577 -2.51576,0 0,2.51577 -10.06305,0 0,-8.80517 -3.77364,0 0,8.80517 -61.63618,0 0,-7.54729 -5.03152,0 0,7.54729 -32.70491,0 0,-5.03153 -16.35245,0 0,5.03153 -25.15762,0 0,-26.41552 10.06305,0 0,3.77364 8.80516,0 0,-3.77364 36.47855,0 0,3.77364 11.32094,0 0,-3.77364 13.83669,0 0,3.77364 11.32093,0 0,-3.77364 13.83668,0 0,3.77364 11.32094,0 0,-3.77364 23.89974,0 0,-26.41552 -16.35245,0 0,-3.77364 -11.32094,0 0,3.77364 -57.86253,0 0,-1.25788 -25.15761,0 0,1.25788 -12.57881,0 0,-17.61035 -17.61034,0 0,-6.2894 2.51576,0 0,-3.77365 -2.51576,0 0,-16.35246 8.80516,0 0,-7.54729 -8.80516,0 0,-11.32094 5.03152,0 0,-5.03153 -5.03152,0 0,-10.06306 11.32092,0 0,-5.03152 -11.32092,0 0,-13.8367 17.61034,0 0,-17.61035 6.2894,0 0,3.77364 18.86821,0 0,-3.77364 13.8367,0 0,3.77364 3.77364,0 0,-3.77364 12.57881,0 0,6.28941 5.03153,0 0,-6.28941 6.2894,0 0,2.51577 3.77365,0 0,-2.51577 44.02583,0 0,17.61035 3.77364,0 0,3.77364 5.03153,0 0,-3.77364 z"
       id="path4173"
       inkscape:connector-curvature="0" />
    <path
       style="font-size:medium;font-style:normal;font-variant:normal;font-weight:normal;font-stretch:normal;text-indent:0;text-align:start;text-decoration:none;line-height:normal;letter-spacing:normal;word-spacing:normal;text-transform:none;direction:ltr;block-progression:tb;writing-mode:lr-tb;text-anchor:start;baseline-shift:baseline;color:#000000;fill:#80ec01;fill-opacity:1;stroke:none;stroke-width:7;marker:none;visibility:visible;display:inline;overflow:visible;enable-background:accumulate;font-family:Sans;-inkscape-font-specification:Sans"
       d="m 110.101,656.75618 0,4.40259 0,13.20776 -13.20775,0 -4.40258,0 0,4.40259 0,158.49312 0,4.40258 4.40258,0 52.831,0 4.40259,0 0,-4.40258 0,-48.42846 30.81808,0 4.40259,0 0,-4.40258 0,-35.2207 0,-4.40259 -4.40259,0 -30.81808,0 0,-44.02586 136.4801,0 4.40258,0 0,-4.40258 0,-35.2207 0,-4.40259 -4.40258,0 -176.10336,0 -4.40258,0 z m 8.80517,8.80518 167.29818,0 0,26.41551 -136.4801,0 -4.40258,0 0,4.4026 0,52.83103 0,4.40259 4.40258,0 30.81809,0 0,26.41551 -30.81809,0 -4.40258,0 0,4.4026 0,48.42844 -44.02584,0 0,-149.68794 13.20775,0 4.40259,0 0,-4.40258 0,-13.20776 z"
       id="path3034"
       inkscape:connector-curvature="0" />
    <path
       style="font-size:medium;font-style:normal;font-variant:normal;font-weight:normal;font-stretch:normal;text-indent:0;text-align:start;text-decoration:none;line-height:normal;letter-spacing:normal;word-spacing:normal;text-transform:none;direction:ltr;block-progression:tb;writing-mode:lr-tb;text-anchor:start;baseline-shift:baseline;color:#000000;fill:#80ec01;fill-opacity:1;fill-rule:nonzero;stroke:none;stroke-width:2.10526323;marker:none;visibility:visible;display:inline;overflow:visible;enable-background:accumulate;font-family:Sans;-inkscape-font-specification:Sans"
       d="m 173.42745,828.02466 -3.1447,11.00647 11.00646,3.18401 3.18401,-11.04578 z"
       id="path3819"
       inkscape:connector-curvature="0"
       sodipodi:nodetypes="ccccc" />
    <path
       style="font-size:medium;font-style:normal;font-variant:normal;font-weight:normal;font-stretch:normal;text-indent:0;text-align:start;text-decoration:none;line-height:normal;letter-spacing:normal;word-spacing:normal;text-transform:none;direction:ltr;block-progression:tb;writing-mode:lr-tb;text-anchor:start;baseline-shift:baseline;color:#000000;fill:#80ec01;fill-opacity:1;fill-rule:nonzero;stroke:none;stroke-width:2.10526323;marker:none;visibility:visible;display:inline;overflow:visible;enable-background:accumulate;font-family:Sans;-inkscape-font-specification:Sans"
       d="m 214.26928,855.58014 0,11.43886 11.47816,0 0,-11.43886 z"
       id="path3821"
       inkscape:connector-curvature="0"
       sodipodi:nodetypes="ccccc" />
    <path
       style="font-size:medium;font-style:normal;font-variant:normal;font-weight:normal;font-stretch:normal;text-indent:0;text-align:start;text-decoration:none;line-height:normal;letter-spacing:normal;word-spacing:normal;text-transform:none;direction:ltr;block-progression:tb;writing-mode:lr-tb;text-anchor:start;baseline-shift:baseline;color:#000000;fill:#80ec01;fill-opacity:1;fill-rule:nonzero;stroke:none;stroke-width:2.10526323;marker:none;visibility:visible;display:inline;overflow:visible;enable-background:accumulate;font-family:Sans;-inkscape-font-specification:Sans"
       d="m 155.89573,875.27385 -7.86175,8.33347 8.37277,7.86176 7.86176,-8.33346 z"
       id="path3823"
       inkscape:connector-curvature="0"
       sodipodi:nodetypes="ccccc" />
    <path
       style="font-size:medium;font-style:normal;font-variant:normal;font-weight:normal;font-stretch:normal;text-indent:0;text-align:start;text-decoration:none;line-height:normal;letter-spacing:normal;word-spacing:normal;text-transform:none;direction:ltr;block-progression:tb;writing-mode:lr-tb;text-anchor:start;baseline-shift:baseline;color:#000000;fill:#80ec01;fill-opacity:1;fill-rule:nonzero;stroke:none;stroke-width:2.10526323;marker:none;visibility:visible;display:inline;overflow:visible;enable-background:accumulate;font-family:Sans;-inkscape-font-specification:Sans"
       d="m 204.79586,967.49232 0,11.47817 11.47817,0 0,-11.47817 z"
       id="path3825"
       inkscape:connector-curvature="0"
       sodipodi:nodetypes="ccccc" />
    <path
       style="font-size:medium;font-style:normal;font-variant:normal;font-weight:normal;font-stretch:normal;text-indent:0;text-align:start;text-decoration:none;line-height:normal;letter-spacing:normal;word-spacing:normal;text-transform:none;direction:ltr;block-progression:tb;writing-mode:lr-tb;text-anchor:start;baseline-shift:baseline;color:#000000;fill:#80ec01;fill-opacity:1;fill-rule:nonzero;stroke:none;stroke-width:2.10526323;marker:none;visibility:visible;display:inline;overflow:visible;enable-background:accumulate;font-family:Sans;-inkscape-font-specification:Sans"
       d="m 331.68461,625.34845 0,11.47817 11.47817,0 0,-11.47817 z"
       id="path3827"
       inkscape:connector-curvature="0"
       sodipodi:nodetypes="ccccc" />
    <path
       style="font-size:medium;font-style:normal;font-variant:normal;font-weight:normal;font-stretch:normal;text-indent:0;text-align:start;text-decoration:none;line-height:normal;letter-spacing:normal;word-spacing:normal;text-transform:none;direction:ltr;block-progression:tb;writing-mode:lr-tb;text-anchor:start;baseline-shift:baseline;color:#000000;fill:#80ec01;fill-opacity:1;fill-rule:nonzero;stroke:none;stroke-width:2.10526323;marker:none;visibility:visible;display:inline;overflow:visible;enable-background:accumulate;font-family:Sans;-inkscape-font-specification:Sans"
       d="m 311.59782,722.67706 -11.12439,2.90885 2.90886,11.08509 11.08507,-2.86955 z"
       id="path3829"
       inkscape:connector-curvature="0"
       sodipodi:nodetypes="ccccc" />
    <path
       style="font-size:medium;font-style:normal;font-variant:normal;font-weight:normal;font-stretch:normal;text-indent:0;text-align:start;text-decoration:none;line-height:normal;letter-spacing:normal;word-spacing:normal;text-transform:none;direction:ltr;block-progression:tb;writing-mode:lr-tb;text-anchor:start;baseline-shift:baseline;color:#000000;fill:#80ec01;fill-opacity:1;fill-rule:nonzero;stroke:none;stroke-width:2.10526323;marker:none;visibility:visible;display:inline;overflow:visible;enable-background:accumulate;font-family:Sans;-inkscape-font-specification:Sans"
       d="m 330.34811,699.72071 -3.1447,11.04577 11.00646,3.14471 3.1447,-11.04578 z"
       id="path3831"
       inkscape:connector-curvature="0"
       sodipodi:nodetypes="ccccc" />
    <path
       style="font-size:medium;font-style:normal;font-variant:normal;font-weight:normal;font-stretch:normal;text-indent:0;text-align:start;text-decoration:none;line-height:normal;letter-spacing:normal;word-spacing:normal;text-transform:none;direction:ltr;block-progression:tb;writing-mode:lr-tb;text-anchor:start;baseline-shift:baseline;color:#000000;fill:#80ec01;fill-opacity:1;fill-rule:nonzero;stroke:none;stroke-width:2.10526323;marker:none;visibility:visible;display:inline;overflow:visible;enable-background:accumulate;font-family:Sans;-inkscape-font-specification:Sans"
       d="m 260.85019,730.10642 -11.20301,2.59438 2.59438,11.20302 11.203,-2.59439 z"
       id="path3906"
       inkscape:connector-curvature="0"
       sodipodi:nodetypes="ccccc" />
    <path
       style="font-size:medium;font-style:normal;font-variant:normal;font-weight:normal;font-stretch:normal;text-indent:0;text-align:start;text-decoration:none;line-height:normal;letter-spacing:normal;word-spacing:normal;text-transform:none;direction:ltr;block-progression:tb;writing-mode:lr-tb;text-anchor:start;baseline-shift:baseline;color:#000000;fill:#288c00;fill-opacity:1;stroke:none;stroke-width:0.70175415;marker:none;visibility:visible;display:inline;overflow:visible;enable-background:accumulate;font-family:Sans;-inkscape-font-specification:Sans"
       d="m 209.78807,732.62218 c -12.27364,0 -22.24877,9.97545 -22.24877,22.24879 0,12.27333 9.97513,22.24879 22.24877,22.24879 12.27368,0 22.20946,-9.97548 22.20946,-22.24879 0,-12.27334 -9.93578,-22.24879 -22.20946,-22.24879 z m 0,0.90411 c 11.79663,0 21.34467,9.5484 21.34467,21.34468 0,11.79625 -9.54804,21.34468 -21.34467,21.34468 -11.79661,0 -21.34466,-9.54844 -21.34466,-21.34468 0,-11.79628 9.54805,-21.34468 21.34466,-21.34468 z"
       id="path3833"
       inkscape:connector-curvature="0" />
    <path
       style="font-size:medium;font-style:normal;font-variant:normal;font-weight:normal;font-stretch:normal;text-indent:0;text-align:start;text-decoration:none;line-height:normal;letter-spacing:normal;word-spacing:normal;text-transform:none;direction:ltr;block-progression:tb;writing-mode:lr-tb;text-anchor:start;baseline-shift:baseline;color:#000000;fill:#288c00;fill-opacity:1;stroke:none;stroke-width:0.70175439;marker:none;visibility:visible;display:inline;overflow:visible;enable-background:accumulate;font-family:Sans;-inkscape-font-specification:Sans"
       d="m 209.78807,745.86926 c -4.96179,0 -9.00171,4.04007 -9.00171,9.00171 0,4.96172 4.03992,9.00171 9.00171,9.00171 4.96181,0 9.00172,-4.03999 9.00172,-9.00171 0,-4.96164 -4.03991,-9.00171 -9.00172,-9.00171 z m 0,0.90409 c 4.48477,0 8.09761,3.61307 8.09761,8.09762 0,4.48466 -3.61284,8.09761 -8.09761,8.09761 -4.48476,0 -8.13692,-3.61295 -8.13692,-8.09761 0,-4.48455 3.65216,-8.09762 8.13692,-8.09762 z"
       id="path3835"
       inkscape:connector-curvature="0" />
    <path
       style="font-size:medium;font-style:normal;font-variant:normal;font-weight:normal;font-stretch:normal;text-indent:0;text-align:start;text-decoration:none;line-height:normal;letter-spacing:normal;word-spacing:normal;text-transform:none;direction:ltr;block-progression:tb;writing-mode:lr-tb;text-anchor:start;baseline-shift:baseline;color:#000000;fill:#288c00;fill-opacity:1;stroke:none;stroke-width:0.70175439;marker:none;visibility:visible;display:inline;overflow:visible;enable-background:accumulate;font-family:Sans;-inkscape-font-specification:Sans"
       d="m 209.35568,733.09389 0,43.55416 0.8648,0 0,-43.55416 -0.8648,0 z"
       id="path3839"
       inkscape:connector-curvature="0" />
    <path
       style="font-size:medium;font-style:normal;font-variant:normal;font-weight:normal;font-stretch:normal;text-indent:0;text-align:start;text-decoration:none;line-height:normal;letter-spacing:normal;word-spacing:normal;text-transform:none;direction:ltr;block-progression:tb;writing-mode:lr-tb;text-anchor:start;baseline-shift:baseline;color:#000000;fill:#288c00;fill-opacity:1;stroke:none;stroke-width:0.70200002;marker:none;visibility:visible;display:inline;overflow:visible;enable-background:accumulate;font-family:Sans;-inkscape-font-specification:Sans"
       d="m 187.9717,754.43857 0,0.8648 43.59344,0 0,-0.8648 -43.59344,0 z"
       id="path3841"
       inkscape:connector-curvature="0" />
    <path
       style="font-size:medium;font-style:normal;font-variant:normal;font-weight:normal;font-stretch:normal;text-indent:0;text-align:start;text-decoration:none;line-height:normal;letter-spacing:normal;word-spacing:normal;text-transform:none;direction:ltr;block-progression:tb;writing-mode:lr-tb;text-anchor:start;baseline-shift:baseline;color:#000000;fill:#80ec01;fill-opacity:1;fill-rule:nonzero;stroke:none;stroke-width:2.10526323;marker:none;visibility:visible;display:inline;overflow:visible;enable-background:accumulate;font-family:Sans;-inkscape-font-specification:Sans"
       d="m 215.68439,749.72152 -11.32092,2.00475 2.00474,11.28162 11.32093,-2.00475 z"
       id="path3880"
       inkscape:connector-curvature="0"
       sodipodi:nodetypes="ccccc" />
    <path
       style="fill:#c9ff86;fill-opacity:1;stroke:none;display:inline"
       d="m 209.35543,750.84071 0,11.638 0.86449,-0.15223 0,-11.63788 z"
       id="path3817"
       inkscape:connector-curvature="0"
       sodipodi:nodetypes="ccccc" />
    <path
       style="fill:#c9ff86;fill-opacity:1;stroke:none;display:inline"
       d="m 205.00358,755.30315 11.67297,0 -0.15343,-0.86449 -11.67798,0.004 0.15244,0.86055 z"
       id="path3926"
       inkscape:connector-curvature="0"
       sodipodi:nodetypes="cccccc" />
    <path
       style="font-size:medium;font-style:normal;font-variant:normal;font-weight:normal;font-stretch:normal;text-indent:0;text-align:start;text-decoration:none;line-height:normal;letter-spacing:normal;word-spacing:normal;text-transform:none;direction:ltr;block-progression:tb;writing-mode:lr-tb;text-anchor:start;baseline-shift:baseline;color:#000000;fill:#80ec01;fill-opacity:1;fill-rule:nonzero;stroke:none;stroke-width:2.10526323;marker:none;visibility:visible;display:inline;overflow:visible;enable-background:accumulate;font-family:Sans;-inkscape-font-specification:Sans"
       d="m 247.09211,749.44636 -11.39955,1.0612 1.06128,11.43887 11.39955,-1.06121 z"
       id="path3928"
       inkscape:connector-curvature="0"
       sodipodi:nodetypes="ccccc" />
    <path
       transform="matrix(0,-7.4028147,7.4028097,0,-3836.3462,2006.3528)"
       sodipodi:open="true"
       sodipodi:end="1.5707963"
       sodipodi:start="0"
       d="m 133,518.86218 a 3.5,3.5 0 0 1 -3.5,3.5"
       sodipodi:ry="3.5"
       sodipodi:rx="3.5"
       sodipodi:cy="518.86218"
       sodipodi:cx="129.5"
       id="path3979"
       style="fill:none;stroke:#288c00;stroke-width:0.0543037;stroke-linecap:square;stroke-linejoin:round;stroke-miterlimit:4;stroke-opacity:1;stroke-dasharray:none;stroke-dashoffset:0;display:inline"
       sodipodi:type="arc" />
    <path
       transform="matrix(0,-14.590712,14.590702,0,-7565.8716,2937.1853)"
       sodipodi:open="true"
       sodipodi:end="1.5707963"
       sodipodi:start="0"
       d="m 133,518.86218 a 3.5,3.5 0 0 1 -3.5,3.5"
       sodipodi:ry="3.5"
       sodipodi:rx="3.5"
       sodipodi:cy="518.86218"
       sodipodi:cx="129.5"
       id="path3981"
       style="fill:none;stroke:#288c00;stroke-width:0.02755178;stroke-linecap:square;stroke-linejoin:round;stroke-miterlimit:4;stroke-opacity:1;stroke-dasharray:none;stroke-dashoffset:0;display:inline"
       sodipodi:type="arc" />
    <path
       transform="matrix(0,-23.575582,23.575566,0,-12227.778,4100.7263)"
       sodipodi:open="true"
       sodipodi:end="1.5707963"
       sodipodi:start="0"
       d="m 133,518.86218 a 3.5,3.5 0 0 1 -3.5,3.5"
       sodipodi:ry="3.5"
       sodipodi:rx="3.5"
       sodipodi:cy="518.86218"
       sodipodi:cx="129.5"
       id="path3983"
       style="fill:none;stroke:#288c00;stroke-width:0.01705155;stroke-linecap:square;stroke-linejoin:round;stroke-miterlimit:4;stroke-opacity:1;stroke-dasharray:none;stroke-dashoffset:0;display:inline"
       sodipodi:type="arc" />
    <path
       transform="matrix(0,-33.279242,33.279221,0,-17262.637,5357.3505)"
       sodipodi:open="true"
       sodipodi:end="1.5707963"
       sodipodi:start="0"
       d="m 133,518.86218 a 3.5,3.5 0 0 1 -3.5,3.5"
       sodipodi:ry="3.5"
       sodipodi:rx="3.5"
       sodipodi:cy="518.86218"
       sodipodi:cx="129.5"
       id="path3985"
       style="fill:none;stroke:#288c00;stroke-width:0.0120796;stroke-linecap:square;stroke-linejoin:round;stroke-miterlimit:4;stroke-opacity:1;stroke-dasharray:none;stroke-dashoffset:0;display:inline"
       sodipodi:type="arc" />
    <path
       sodipodi:type="arc"
       style="fill:none;stroke:#288c00;stroke-width:0.0086309;stroke-linecap:square;stroke-linejoin:round;stroke-miterlimit:4;stroke-opacity:1;stroke-dasharray:none;stroke-dashoffset:0;display:inline"
       id="path3973"
       sodipodi:cx="129.5"
       sodipodi:cy="518.86218"
       sodipodi:rx="3.5"
       sodipodi:ry="3.5"
       d="m 133,518.86218 a 3.5,3.5 0 0 1 -3.5,3.5"
       sodipodi:start="0"
       sodipodi:end="1.5707963"
       sodipodi:open="true"
       transform="matrix(0,-46.576851,46.57682,0,-24162.259,7079.3905)" />
    <path
       inkscape:connector-curvature="0"
       id="path3952"
       d="m 103.8116,690.70287 -6.28941,0 0,41.5101 6.28941,0 z"
       style="fill:#80ec01;fill-opacity:1;stroke:none;display:inline" />
    <path
       inkscape:connector-curvature="0"
       id="path3950"
       d="m 151.61107,752.33908 0,5.03153 22.64187,0 0,-5.03153 z"
       style="fill:#80ec01;fill-opacity:1;stroke:none;display:inline" />
    <path
       style="fill:#80ec01;fill-opacity:1;stroke:none;display:inline"
       d="m 149.09531,696.99228 -6.2894,0 0,18.86822 6.2894,0 z"
       id="path3905"
       inkscape:connector-curvature="0" />
    <path
       style="fill:#80ec01;fill-opacity:1;stroke:none;display:inline"
       d="m 105.06947,753.59696 -6.2894,0 0,18.86823 6.2894,0 z"
       id="path3905-1"
       inkscape:connector-curvature="0" />
    <path
       inkscape:connector-curvature="0"
       id="path3925"
       d="m 167.96352,664.28735 0,6.28941 52.83102,0 0,-6.28941 z"
       style="fill:#80ec01;fill-opacity:1;stroke:none;display:inline" />
    <path
       style="fill:#80ec01;fill-opacity:1;stroke:none;display:inline"
       d="m 248.46792,688.1871 0,6.28942 28.93126,0 0,-6.28942 z"
       id="path3948"
       inkscape:connector-curvature="0" />
    <path
       inkscape:connector-curvature="0"
       id="path3954"
       d="m 108.84312,787.55977 -10.06305,0 0,3.77365 10.06305,0 z"
       style="fill:#80ec01;fill-opacity:1;stroke:none;display:inline" />
    <path
       style="fill:#80ec01;fill-opacity:1;stroke:none;display:inline"
       d="m 105.06947,801.39647 -6.2894,0 0,5.03153 6.2894,0 z"
       id="path3956"
       inkscape:connector-curvature="0" />
    <path
       inkscape:connector-curvature="0"
       id="path3958"
       d="m 107.58523,820.2647 -8.80516,0 0,3.77364 8.80516,0 z"
       style="fill:#80ec01;fill-opacity:1;stroke:none;display:inline" />
    <path
       style="fill:#80ec01;fill-opacity:1;stroke:none;display:inline"
       d="m 137.77438,827.81199 -16.35245,0 0,6.28941 16.35245,0 z"
       id="path3960"
       inkscape:connector-curvature="0" />
    <path
       style="fill:#80ec01;fill-opacity:1;stroke:none;display:inline"
       d="m 156.6426,773.72307 0,11.32094 6.2894,0 0,-11.32094 z"
       id="path3946"
       inkscape:connector-curvature="0" />
    <path
       inkscape:connector-curvature="0"
       id="path3944"
       d="m 162.932,683.15557 0,11.32095 5.03152,0 0,-11.32095 z"
       style="fill:#80ec01;fill-opacity:1;stroke:none;display:inline" />
    <path
       style="fill:#80ec01;fill-opacity:1;stroke:none;display:inline"
       d="m 209.4736,685.67134 0,7.54729 5.03153,0 0,-7.54729 z"
       id="path3942"
       inkscape:connector-curvature="0" />
    <path
       style="fill:#80ec01;fill-opacity:1;stroke:none;display:inline"
       d="m 244.69428,664.28735 0,7.54729 5.03152,0 0,-7.54729 z"
       id="path3927"
       inkscape:connector-curvature="0" />
    <path
       inkscape:connector-curvature="0"
       id="path3940"
       d="m 266.07825,663.02946 0,7.5473 3.77364,0 0,-7.5473 z"
       style="fill:#80ec01;fill-opacity:1;stroke:none;display:inline" />
    <path
       style="fill:none;stroke:#288c00;stroke-width:0.40000001;stroke-linecap:butt;stroke-linejoin:miter;stroke-miterlimit:4;stroke-opacity:1;stroke-dasharray:none;display:inline"
       d="m 101.29583,832.84352 20.1261,0 0,-5.03153 16.35245,0 0,5.03153 7.54729,0 0,-52.83104 11.32093,0 0,-6.28941 6.2894,0 0,6.28941 17.61034,0 0,0 0,-26.41552 -6.2894,0 0,3.77365 -22.64187,0 0,-3.77365 -6.2894,0 0,-37.73646 -2.51576,0 0,-18.86822 2.51576,0 0,-5.03153 17.61033,0 0,-8.80518 5.03152,0 0,8.80518 41.51008,0 0,-6.28941 5.03153,0 0,6.28941 33.96279,0 0,-3.77365 28.93126,0 0,3.77365 8.80517,0 0,-26.41552 -16.35246,0 0,5.03153 -3.77364,0 0,-5.03153 -16.35245,0 0,6.28941 -5.03152,0 0,-6.28941 -23.89974,0 0,5.03153 -52.83102,0 0,-5.03153 -49.05735,0 0,17.61034 -17.61034,0 0,7.5473 2.51577,0 0,41.5101 -2.51577,0 0,21.38399 3.77364,0 0,18.86823 -3.77364,0 0,15.09458 7.54729,0 0,3.77365 -7.54729,0 0,10.06305 3.77364,0 0,5.03153 -3.77364,0 0,13.8367 6.2894,0 0,3.77364 -6.2894,0 z"
       id="path3962"
       inkscape:connector-curvature="0" />
    <path
       sodipodi:nodetypes="cccccc"
       style="fill:none;stroke:#80ec01;stroke-width:0.40000001;stroke-linecap:butt;stroke-linejoin:miter;stroke-miterlimit:4;stroke-opacity:1;stroke-dasharray:none;display:inline"
       d="m 100.03795,748.56543 18.86822,0 0,-12.57882 11.32093,0 0,-3.77364 16.35245,0"
       id="path4132"
       inkscape:connector-curvature="0" />
    <path
       inkscape:connector-curvature="0"
       id="path4191"
       d="m 315.13562,928.44254 0,-15.09458 5.03151,0 0,-13.8367"
       style="fill:none;stroke:#80ec01;stroke-width:0.40000001;stroke-linecap:butt;stroke-linejoin:miter;stroke-miterlimit:4;stroke-opacity:1;stroke-dasharray:none;display:inline"
       sodipodi:nodetypes="cccc" />
    <path
       transform="matrix(0,-94.376363,94.376301,0,-48963.602,13269.427)"
       sodipodi:open="true"
       sodipodi:end="1.5707963"
       sodipodi:start="0"
       d="m 133,518.86218 a 3.5,3.5 0 0 1 -3.5,3.5"
       sodipodi:ry="3.5"
       sodipodi:rx="3.5"
       sodipodi:cy="518.86218"
       sodipodi:cx="129.5"
       id="path3999"
       style="fill:none;stroke:#288c00;stroke-width:0.00425954;stroke-linecap:square;stroke-linejoin:round;stroke-miterlimit:4;stroke-opacity:1;stroke-dasharray:none;stroke-dashoffset:0;display:inline"
       sodipodi:type="arc" />
    <path
       style="fill:none;stroke:#80ec01;stroke-width:0.40000001;stroke-linecap:butt;stroke-linejoin:miter;stroke-miterlimit:4;stroke-opacity:1;stroke-dasharray:none;display:inline"
       d="m 257.27308,664.28735 0,10.06306 5.03152,0 0,15.09458"
       id="path3986"
       inkscape:connector-curvature="0" />
    <path
       inkscape:connector-curvature="0"
       id="path3988"
       d="m 228.34182,664.28735 0,11.32093 5.03152,3.77365 0,13.8367"
       style="fill:none;stroke:#80ec01;stroke-width:0.40000001;stroke-linecap:butt;stroke-linejoin:miter;stroke-miterlimit:4;stroke-opacity:1;stroke-dasharray:none;display:inline"
       sodipodi:nodetypes="cccc" />
    <path
       sodipodi:nodetypes="cccc"
       style="fill:none;stroke:#80ec01;stroke-width:0.40000001;stroke-linecap:butt;stroke-linejoin:miter;stroke-miterlimit:4;stroke-opacity:1;stroke-dasharray:none;display:inline"
       d="m 174.25294,693.21863 0,-10.06306 5.03152,-2.51576 0,-11.32093"
       id="path3360"
       inkscape:connector-curvature="0" />
    <path
       inkscape:connector-curvature="0"
       id="path4130"
       d="m 144.06379,702.02381 -25.15762,0 0,10.06305 -6.28941,0 0,-6.28941 -10.06305,0"
       style="fill:none;stroke:#80ec01;stroke-width:0.40000001;stroke-linecap:butt;stroke-linejoin:miter;stroke-miterlimit:4;stroke-opacity:1;stroke-dasharray:none;display:inline"
       sodipodi:nodetypes="cccccc" />
    <path
       sodipodi:nodetypes="cccc"
       style="fill:none;stroke:#80ec01;stroke-width:0.40000001;stroke-linecap:butt;stroke-linejoin:miter;stroke-miterlimit:4;stroke-opacity:1;stroke-dasharray:none;display:inline"
       d="m 146.57955,813.97529 -26.4155,0 -5.03153,-10.06306 -11.32092,0"
       id="path4134"
       inkscape:connector-curvature="0" />
    <path
       transform="matrix(0,-66.343567,66.343523,0,-34418.453,9639.18)"
       sodipodi:open="true"
       sodipodi:end="1.5707963"
       sodipodi:start="0"
       d="m 133,518.86218 a 3.5,3.5 0 0 1 -3.5,3.5"
       sodipodi:ry="3.5"
       sodipodi:rx="3.5"
       sodipodi:cy="518.86218"
       sodipodi:cx="129.5"
       id="path3155"
       style="fill:none;stroke:#288c00;stroke-width:0.00605938;stroke-linecap:square;stroke-linejoin:round;stroke-miterlimit:4;stroke-opacity:1;stroke-dasharray:none;stroke-dashoffset:0;display:inline"
       sodipodi:type="arc" />
    <path
       sodipodi:type="arc"
       style="fill:none;stroke:#288c00;stroke-width:0.00308482;stroke-linecap:square;stroke-linejoin:round;stroke-miterlimit:4;stroke-opacity:1;stroke-dasharray:none;stroke-dashoffset:0;display:inline"
       id="path3157"
       sodipodi:cx="129.5"
       sodipodi:cy="518.86218"
       sodipodi:rx="3.5"
       sodipodi:ry="3.5"
       d="m 133,518.86218 a 3.5,3.5 0 0 1 -3.5,3.5"
       sodipodi:start="0"
       sodipodi:end="1.5707963"
       sodipodi:open="true"
       transform="matrix(0,-130.31584,130.31576,0,-67611.228,17923.59)" />
    <path
       id="path3161"
       style="fill:none;stroke:#288c00;stroke-width:0.40200004;stroke-miterlimit:4;stroke-opacity:1;stroke-dasharray:none;display:inline"
       d="M 507.59142,644.09875 C 478.19459,607.51722 444.87894,574.20156 408.29743,544.8047 m -378.70081,-0.0161 452.83717,0 c 13.8367,0 25.15763,11.32094 25.15763,25.15764 l 0,452.83746 c 0,13.8367 -11.32093,25.1577 -25.15763,25.1577 l -452.83717,0 c -13.8367,0 -25.15763,-11.321 -25.15763,-25.1577 l 0,-452.83746 c 0,-13.8367 11.32093,-25.15764 25.15763,-25.15764 z"
       inkscape:connector-curvature="0" />
    <path
       style="font-size:medium;font-style:normal;font-variant:normal;font-weight:normal;font-stretch:normal;text-indent:0;text-align:start;text-decoration:none;line-height:normal;letter-spacing:normal;word-spacing:normal;text-transform:none;direction:ltr;block-progression:tb;writing-mode:lr-tb;text-anchor:start;baseline-shift:baseline;color:#000000;fill:url(#linearGradient3981);fill-opacity:1;stroke:none;stroke-width:9;marker:none;visibility:visible;display:inline;overflow:visible;enable-background:accumulate;font-family:Sans;-inkscape-font-specification:Sans"
       d="m 512,569.95738 c 0,-16.24977 -13.34625,-29.5952 -29.59698,-29.5952 l -452.83678,0 C 13.31551,540.36218 0,553.70762 0,569.95738 L 0,1022.767 c 0,16.2497 13.31551,29.5952 29.56624,29.5952 l 452.83678,0 c 16.25073,0 29.59698,-13.3455 29.59698,-29.5952 l 0,-452.80962 z m -8.85143,0 0,452.80962 c 0,11.422 -9.32288,20.7443 -20.74555,20.7443 l -452.83678,0 c -11.42269,0 -20.71481,-9.3223 -20.71481,-20.7443 l 0,-452.80962 c 0,-11.422 9.29212,-20.7443 20.71481,-20.7443 l 452.83678,0 c 11.42267,0 20.74555,9.32231 20.74555,20.7443 z"
       id="path3203"
       inkscape:connector-curvature="0" />
    <path
       sodipodi:nodetypes="cccc"
       style="fill:none;stroke:#80ec01;stroke-width:0.40000001;stroke-linecap:butt;stroke-linejoin:miter;stroke-miterlimit:4;stroke-opacity:1;stroke-dasharray:none;display:inline"
       d="m 326.45654,764.9179 0,8.80517 -5.03152,2.51576 0,10.06306"
       id="path4175"
       inkscape:connector-curvature="0" />
    <path
       sodipodi:nodetypes="cccccc"
       style="fill:none;stroke:#80ec01;stroke-width:0.40000001;stroke-linecap:butt;stroke-linejoin:miter;stroke-miterlimit:4;stroke-opacity:1;stroke-dasharray:none;display:inline"
       d="m 261.04673,793.84918 10.06305,0 0,3.77365 6.2894,0 0,-6.28941 16.35245,0"
       id="path4179"
       inkscape:connector-curvature="0" />
    <path
       inkscape:connector-curvature="0"
       id="path4181"
       d="m 258.53097,825.29623 10.06305,0 0,-15.09458 27.67337,0"
       style="fill:none;stroke:#80ec01;stroke-width:0.40000001;stroke-linecap:butt;stroke-linejoin:miter;stroke-miterlimit:4;stroke-opacity:1;stroke-dasharray:none;display:inline"
       sodipodi:nodetypes="cccc" />
    <path
       inkscape:connector-curvature="0"
       id="path4185"
       d="m 323.94078,875.61151 0,-6.28942 5.03153,0 0,-5.03153 3.77364,0 0,-13.83669"
       style="fill:none;stroke:#80ec01;stroke-width:0.40000001;stroke-linecap:butt;stroke-linejoin:miter;stroke-miterlimit:4;stroke-opacity:1;stroke-dasharray:none;display:inline"
       sodipodi:nodetypes="cccccc" />
    <path
       inkscape:connector-curvature="0"
       id="path4187"
       d="m 349.09841,875.61151 0,-8.80518 5.03151,0 0,-12.57882"
       style="fill:none;stroke:#80ec01;stroke-width:0.40000001;stroke-linecap:butt;stroke-linejoin:miter;stroke-miterlimit:4;stroke-opacity:1;stroke-dasharray:none;display:inline"
       sodipodi:nodetypes="cccc" />
    <path
       sodipodi:nodetypes="cccc"
       style="fill:none;stroke:#80ec01;stroke-width:0.40000001;stroke-linecap:butt;stroke-linejoin:miter;stroke-miterlimit:4;stroke-opacity:1;stroke-dasharray:none;display:inline"
       d="m 258.53097,928.44254 0,-11.32094 7.54728,-3.77364 0,-10.06305"
       id="path4189"
       inkscape:connector-curvature="0" />
    <path
       sodipodi:nodetypes="cccccc"
       style="fill:none;stroke:#80ec01;stroke-width:0.40000001;stroke-linecap:butt;stroke-linejoin:miter;stroke-miterlimit:4;stroke-opacity:1;stroke-dasharray:none;display:inline"
       d="m 400.67152,928.44254 0,-16.35246 -5.03152,0 0,-5.03153 -6.2894,0 0,-7.54729"
       id="path4193"
       inkscape:connector-curvature="0" />
    <path
       inkscape:connector-curvature="0"
       id="path4195"
       d="m 278.65707,923.41102 0,-10.06306 7.54728,-3.77365 0,-10.06305"
       style="fill:none;stroke:#80ec01;stroke-width:0.40000001;stroke-linecap:butt;stroke-linejoin:miter;stroke-miterlimit:4;stroke-opacity:1;stroke-dasharray:none;display:inline"
       sodipodi:nodetypes="cccc" />
  </g>
  <g
     inkscape:groupmode="layer"
     id="layer3"
     inkscape:label="Światlo"
     style="display:inline"
     transform="translate(0,-540.36218)">
    <path
       style="opacity:0.04615383;fill:#ffffff;fill-opacity:1;stroke:none;display:inline"
       d="m 29.59662,544.78857 c -13.8367,0 -25.15763,11.32094 -25.15763,25.15764 l 0,325.79141 c 251.57621,0 413.84287,-109.43573 503.15243,-198.74534 l 0,-127.04607 c 0,-13.8367 -11.32093,-25.15764 -25.15763,-25.15764 z"
       id="rect4358"
       inkscape:connector-curvature="0"
       sodipodi:nodetypes="csccscc" />
  </g>
</svg>
